<mxfile host="65bd71144e">
    <diagram id="8mABV2J_COzxHLnR0rQW" name="ページ1">
        <mxGraphModel dx="326" dy="647" grid="1" gridSize="10" guides="1" tooltips="1" connect="1" arrows="1" fold="1" page="1" pageScale="1" pageWidth="827" pageHeight="1169" math="0" shadow="0">
            <root>
                <mxCell id="0"/>
                <mxCell id="1" parent="0"/>
                <mxCell id="2" value="" style="rounded=0;whiteSpace=wrap;html=1;" vertex="1" parent="1">
                    <mxGeometry x="100" y="140" width="590" height="380" as="geometry"/>
                </mxCell>
                <mxCell id="3" value="" style="shape=cylinder3;whiteSpace=wrap;html=1;boundedLbl=1;backgroundOutline=1;size=15;" vertex="1" parent="1">
                    <mxGeometry x="460" y="220" width="120" height="100" as="geometry"/>
                </mxCell>
                <mxCell id="5" value="" style="rounded=1;whiteSpace=wrap;html=1;arcSize=19;" vertex="1" parent="1">
                    <mxGeometry x="130" y="200" width="220" height="250" as="geometry"/>
                </mxCell>
                <mxCell id="6" value="&lt;font style=&quot;font-size: 24px;&quot;&gt;Vercel&lt;/font&gt;" style="text;html=1;strokeColor=none;fillColor=none;align=center;verticalAlign=middle;whiteSpace=wrap;rounded=0;" vertex="1" parent="1">
                    <mxGeometry x="210" y="170" width="60" height="30" as="geometry"/>
                </mxCell>
                <mxCell id="8" value="&lt;font style=&quot;font-size: 24px;&quot;&gt;Supabase&lt;br&gt;&lt;/font&gt;" style="text;html=1;strokeColor=none;fillColor=none;align=center;verticalAlign=middle;whiteSpace=wrap;rounded=0;" vertex="1" parent="1">
                    <mxGeometry x="480" y="170" width="60" height="30" as="geometry"/>
                </mxCell>
                <mxCell id="9" value="Next.js" style="rounded=1;whiteSpace=wrap;html=1;fontSize=24;" vertex="1" parent="1">
                    <mxGeometry x="180" y="240" width="120" height="60" as="geometry"/>
                </mxCell>
                <mxCell id="10" value="Prisma" style="rounded=1;whiteSpace=wrap;html=1;fontSize=24;" vertex="1" parent="1">
                    <mxGeometry x="180" y="350" width="120" height="60" as="geometry"/>
                </mxCell>
                <mxCell id="11" value="" style="shape=flexArrow;endArrow=classic;startArrow=classic;html=1;fontSize=24;entryX=0;entryY=0.5;entryDx=0;entryDy=0;entryPerimeter=0;" edge="1" parent="1" target="3">
                    <mxGeometry width="100" height="100" relative="1" as="geometry">
                        <mxPoint x="300" y="380" as="sourcePoint"/>
                        <mxPoint x="400" y="280" as="targetPoint"/>
                    </mxGeometry>
                </mxCell>
                <mxCell id="12" value="" style="shape=flexArrow;endArrow=classic;startArrow=classic;html=1;fontSize=24;entryX=0.5;entryY=1;entryDx=0;entryDy=0;" edge="1" parent="1" source="10" target="9">
                    <mxGeometry width="100" height="100" relative="1" as="geometry">
                        <mxPoint x="310" y="390" as="sourcePoint"/>
                        <mxPoint x="470" y="280" as="targetPoint"/>
                    </mxGeometry>
                </mxCell>
            </root>
        </mxGraphModel>
    </diagram>
</mxfile>